<svg id="visual" viewBox="0 0 900 600" width="900" height="600" xmlns="http://www.w3.org/2000/svg" xmlns:xlink="http://www.w3.org/1999/xlink" version="1.1"><g transform="translate(809.2839372662718 -10.680815282064088)"><path d="M452.2 -834.2C552.3 -725.3 576.7 -536.2 610.2 -383.8C643.7 -231.3 686.3 -115.7 732 26.3C777.6 168.3 826.1 336.7 804.6 509.9C783.1 683.1 691.6 861.2 545.8 930C400 998.8 200 958.4 9.4 942.1C-181.2 925.8 -362.3 933.6 -384 793.1C-405.6 652.6 -267.8 363.8 -314.7 206.9C-361.6 50 -593.3 25 -624.6 -18.1C-655.9 -61.2 -486.9 -122.3 -412.1 -231C-337.4 -339.7 -356.9 -495.9 -304 -632C-251 -768.1 -125.5 -884 25.2 -927.8C176 -971.5 352 -943 452.2 -834.2" fill="#f9224b"></path></g></svg>