<svg id="visual" viewBox="0 0 900 600" width="900" height="600" xmlns="http://www.w3.org/2000/svg" xmlns:xlink="http://www.w3.org/1999/xlink" version="1.1"><rect x="0" y="0" width="900" height="600" fill="#001220"></rect><defs><linearGradient id="grad1_0" x1="33.3%" y1="0%" x2="100%" y2="100%"><stop offset="20%" stop-color="#fbae3c" stop-opacity="1"></stop><stop offset="80%" stop-color="#fbae3c" stop-opacity="1"></stop></linearGradient></defs><defs><linearGradient id="grad1_1" x1="33.3%" y1="0%" x2="100%" y2="100%"><stop offset="20%" stop-color="#fbae3c" stop-opacity="1"></stop><stop offset="80%" stop-color="#f48350" stop-opacity="1"></stop></linearGradient></defs><defs><linearGradient id="grad1_2" x1="33.3%" y1="0%" x2="100%" y2="100%"><stop offset="20%" stop-color="#d96162" stop-opacity="1"></stop><stop offset="80%" stop-color="#f48350" stop-opacity="1"></stop></linearGradient></defs><defs><linearGradient id="grad1_3" x1="33.3%" y1="0%" x2="100%" y2="100%"><stop offset="20%" stop-color="#d96162" stop-opacity="1"></stop><stop offset="80%" stop-color="#af4b6d" stop-opacity="1"></stop></linearGradient></defs><defs><linearGradient id="grad1_4" x1="33.3%" y1="0%" x2="100%" y2="100%"><stop offset="20%" stop-color="#7c3e6b" stop-opacity="1"></stop><stop offset="80%" stop-color="#af4b6d" stop-opacity="1"></stop></linearGradient></defs><defs><linearGradient id="grad1_5" x1="33.3%" y1="0%" x2="100%" y2="100%"><stop offset="20%" stop-color="#7c3e6b" stop-opacity="1"></stop><stop offset="80%" stop-color="#49335c" stop-opacity="1"></stop></linearGradient></defs><defs><linearGradient id="grad1_6" x1="33.3%" y1="0%" x2="100%" y2="100%"><stop offset="20%" stop-color="#1d2540" stop-opacity="1"></stop><stop offset="80%" stop-color="#49335c" stop-opacity="1"></stop></linearGradient></defs><defs><linearGradient id="grad1_7" x1="33.3%" y1="0%" x2="100%" y2="100%"><stop offset="20%" stop-color="#1d2540" stop-opacity="1"></stop><stop offset="80%" stop-color="#001220" stop-opacity="1"></stop></linearGradient></defs><defs><linearGradient id="grad2_0" x1="0%" y1="0%" x2="66.7%" y2="100%"><stop offset="20%" stop-color="#fbae3c" stop-opacity="1"></stop><stop offset="80%" stop-color="#fbae3c" stop-opacity="1"></stop></linearGradient></defs><defs><linearGradient id="grad2_1" x1="0%" y1="0%" x2="66.7%" y2="100%"><stop offset="20%" stop-color="#f48350" stop-opacity="1"></stop><stop offset="80%" stop-color="#fbae3c" stop-opacity="1"></stop></linearGradient></defs><defs><linearGradient id="grad2_2" x1="0%" y1="0%" x2="66.7%" y2="100%"><stop offset="20%" stop-color="#f48350" stop-opacity="1"></stop><stop offset="80%" stop-color="#d96162" stop-opacity="1"></stop></linearGradient></defs><defs><linearGradient id="grad2_3" x1="0%" y1="0%" x2="66.7%" y2="100%"><stop offset="20%" stop-color="#af4b6d" stop-opacity="1"></stop><stop offset="80%" stop-color="#d96162" stop-opacity="1"></stop></linearGradient></defs><defs><linearGradient id="grad2_4" x1="0%" y1="0%" x2="66.7%" y2="100%"><stop offset="20%" stop-color="#af4b6d" stop-opacity="1"></stop><stop offset="80%" stop-color="#7c3e6b" stop-opacity="1"></stop></linearGradient></defs><defs><linearGradient id="grad2_5" x1="0%" y1="0%" x2="66.7%" y2="100%"><stop offset="20%" stop-color="#49335c" stop-opacity="1"></stop><stop offset="80%" stop-color="#7c3e6b" stop-opacity="1"></stop></linearGradient></defs><defs><linearGradient id="grad2_6" x1="0%" y1="0%" x2="66.7%" y2="100%"><stop offset="20%" stop-color="#49335c" stop-opacity="1"></stop><stop offset="80%" stop-color="#1d2540" stop-opacity="1"></stop></linearGradient></defs><defs><linearGradient id="grad2_7" x1="0%" y1="0%" x2="66.7%" y2="100%"><stop offset="20%" stop-color="#001220" stop-opacity="1"></stop><stop offset="80%" stop-color="#1d2540" stop-opacity="1"></stop></linearGradient></defs><g transform="translate(900, 0)"><path d="M0 378.6C-48.6 372.9 -97.1 367.1 -144.9 349.8C-192.6 332.4 -239.5 303.4 -263 263C-286.6 222.7 -286.7 170.9 -302.1 125.1C-317.5 79.4 -348 39.7 -378.6 0L0 0Z" fill="#0c1c30"></path><path d="M0 331.3C-42.5 326.2 -85 321.2 -126.8 306C-168.5 290.9 -209.6 265.5 -230.2 230.2C-250.8 194.8 -250.9 149.5 -264.3 109.5C-277.8 69.5 -304.5 34.7 -331.3 0L0 0Z" fill="#312c4f"></path><path d="M0 283.9C-36.4 279.6 -72.9 275.3 -108.7 262.3C-144.5 249.3 -179.6 227.6 -197.3 197.3C-214.9 167 -215.1 128.2 -226.6 93.9C-238.1 59.5 -261 29.8 -283.9 0L0 0Z" fill="#623965"></path><path d="M0 236.6C-30.4 233 -60.7 229.5 -90.5 218.6C-120.4 207.8 -149.7 189.6 -164.4 164.4C-179.1 139.2 -179.2 106.8 -188.8 78.2C-198.4 49.6 -217.5 24.8 -236.6 0L0 0Z" fill="#96446e"></path><path d="M0 189.3C-24.3 186.4 -48.6 183.6 -72.4 174.9C-96.3 166.2 -119.8 151.7 -131.5 131.5C-143.3 111.3 -143.4 85.4 -151.1 62.6C-158.7 39.7 -174 19.8 -189.3 0L0 0Z" fill="#c55469"></path><path d="M0 142C-18.2 139.8 -36.4 137.7 -54.3 131.2C-72.2 124.7 -89.8 113.8 -98.6 98.6C-107.5 83.5 -107.5 64.1 -113.3 46.9C-119.1 29.8 -130.5 14.9 -142 0L0 0Z" fill="#e9705a"></path><path d="M0 94.6C-12.1 93.2 -24.3 91.8 -36.2 87.4C-48.2 83.1 -59.9 75.9 -65.8 65.8C-71.6 55.7 -71.7 42.7 -75.5 31.3C-79.4 19.8 -87 9.9 -94.6 0L0 0Z" fill="#fa9845"></path><path d="M0 47.3C-6.1 46.6 -12.1 45.9 -18.1 43.7C-24.1 41.6 -29.9 37.9 -32.9 32.9C-35.8 27.8 -35.8 21.4 -37.8 15.6C-39.7 9.9 -43.5 5 -47.3 0L0 0Z" fill="#fbae3c"></path></g><g transform="translate(0, 600)"><path d="M0 -378.6C45.9 -368.7 91.9 -358.8 142.4 -343.7C192.9 -328.6 247.9 -308.4 267.7 -267.7C287.5 -227 272 -165.9 284.6 -117.9C297.2 -69.8 337.9 -34.9 378.6 0L0 0Z" fill="#0c1c30"></path><path d="M0 -331.3C40.2 -322.6 80.4 -313.9 124.6 -300.7C168.7 -287.5 216.9 -269.8 234.2 -234.2C251.5 -198.6 238 -145.2 249 -103.1C260 -61.1 295.6 -30.6 331.3 0L0 0Z" fill="#312c4f"></path><path d="M0 -283.9C34.4 -276.5 68.9 -269.1 106.8 -257.8C144.6 -246.5 185.9 -231.3 200.8 -200.8C215.6 -170.3 204 -124.4 213.4 -88.4C222.9 -52.4 253.4 -26.2 283.9 0L0 0Z" fill="#623965"></path><path d="M0 -236.6C28.7 -230.4 57.4 -224.2 89 -214.8C120.5 -205.4 155 -192.7 167.3 -167.3C179.7 -141.9 170 -103.7 177.8 -73.7C185.7 -43.7 211.2 -21.8 236.6 0L0 0Z" fill="#96446e"></path><path d="M0 -189.3C23 -184.3 45.9 -179.4 71.2 -171.8C96.4 -164.3 124 -154.2 133.8 -133.8C143.7 -113.5 136 -82.9 142.3 -58.9C148.6 -34.9 168.9 -17.5 189.3 0L0 0Z" fill="#c55469"></path><path d="M0 -142C17.2 -138.3 34.4 -134.5 53.4 -128.9C72.3 -123.2 93 -115.6 100.4 -100.4C107.8 -85.1 102 -62.2 106.7 -44.2C111.4 -26.2 126.7 -13.1 142 0L0 0Z" fill="#e9705a"></path><path d="M0 -94.6C11.5 -92.2 23 -89.7 35.6 -85.9C48.2 -82.2 62 -77.1 66.9 -66.9C71.9 -56.8 68 -41.5 71.1 -29.5C74.3 -17.5 84.5 -8.7 94.6 0L0 0Z" fill="#fa9845"></path><path d="M0 -47.3C5.7 -46.1 11.5 -44.8 17.8 -43C24.1 -41.1 31 -38.5 33.5 -33.5C35.9 -28.4 34 -20.7 35.6 -14.7C37.1 -8.7 42.2 -4.4 47.3 0L0 0Z" fill="#fbae3c"></path></g></svg>