<svg id="visual" viewBox="0 0 900 600" width="900" height="600" xmlns="http://www.w3.org/2000/svg" xmlns:xlink="http://www.w3.org/1999/xlink" version="1.1"><rect x="0" y="0" width="900" height="600" fill="#000"></rect><g transform="translate(1013.2909409508054 -49.09367870151891)"><path d="M459.1 -877.5C542.5 -747 521.5 -518 519.6 -355.3C517.7 -192.7 534.9 -96.3 590.4 32.1C646 160.5 740 321 737.7 476.5C735.5 631.9 637 782.3 498 902.1C359 1021.8 179.5 1110.9 15.2 1084.6C-149.2 1058.4 -298.3 916.7 -321.9 730.3C-345.4 543.9 -243.3 312.7 -365.5 183.5C-487.8 54.3 -834.4 27.2 -933 -56.9C-1031.6 -141 -882.1 -282 -697.8 -303.7C-513.4 -325.3 -294.2 -227.6 -172.1 -335.8C-50 -443.9 -25 -758 81.4 -899C187.8 -1040 375.7 -1008 459.1 -877.5" fill="#12121a"></path></g></svg>