<svg id="visual" viewBox="0 0 900 600" width="900" height="600" xmlns="http://www.w3.org/2000/svg" xmlns:xlink="http://www.w3.org/1999/xlink" version="1.1"><g transform="translate(947.4555124546331 135.3995787824019)"><path d="M391.4 -741.2C434.1 -653.2 345.2 -400.6 443.2 -249.6C541.2 -98.7 826.1 -49.3 811.8 -8.3C797.5 32.8 484.1 65.7 336.3 130.5C188.6 195.3 206.5 292.1 178.1 378.3C149.7 464.6 74.8 540.3 24.9 497.1C-25 454 -50 291.9 -143.7 243.4C-237.4 194.8 -399.7 259.6 -519.9 238C-640 216.3 -718 108.2 -797.5 -45.9C-877.1 -200 -958.2 -400 -866.7 -471.4C-775.3 -542.9 -511.4 -485.8 -338.2 -498.5C-165 -511.1 -82.5 -593.6 45.9 -673.1C174.3 -752.6 348.7 -829.2 391.4 -741.2" fill="#12121a"></path></g></svg>