<svg id="visual" viewBox="0 0 900 600" width="900" height="600" xmlns="http://www.w3.org/2000/svg" xmlns:xlink="http://www.w3.org/1999/xlink" version="1.1"><rect x="0" y="0" width="900" height="600" fill="#000"></rect><g transform="translate(976.1663583729874 58.16179973339524)"><path d="M498.3 -923.7C607.5 -799.9 631.6 -589.2 559.3 -420.8C487.1 -252.3 318.5 -126.2 264.7 -31.1C210.9 64 271.7 128 294.9 211.4C318 294.9 303.5 397.7 248.1 524.2C192.7 650.7 96.3 800.9 -51.8 890.6C-200 980.4 -400 1009.8 -430.9 869.2C-461.8 728.5 -323.6 417.7 -361.6 244.5C-399.6 71.3 -613.8 35.7 -701 -50.3C-788.1 -136.3 -748.3 -272.7 -706.6 -439.5C-664.9 -606.4 -621.5 -803.8 -503.4 -922.4C-385.3 -1041.1 -192.7 -1081 0.9 -1082.6C194.5 -1084.2 389 -1047.4 498.3 -923.7" fill="#12121a"></path></g></svg>