<svg id="visual" viewBox="0 0 900 600" width="900" height="600" xmlns="http://www.w3.org/2000/svg" xmlns:xlink="http://www.w3.org/1999/xlink" version="1.1"><g><g transform="translate(711 440)"><path d="M97.3 -112.4C124.8 -92.8 145.1 -61 146.1 -29.6C147.1 1.9 128.9 32.9 108.5 57.4C88.1 81.9 65.5 99.8 39 111.1C12.5 122.5 -17.8 127.2 -52.6 123.6C-87.5 120 -126.9 108 -143.2 81.8C-159.4 55.5 -152.4 14.9 -144.7 -24.9C-137 -64.7 -128.4 -103.8 -104.2 -123.9C-79.9 -144.1 -40 -145.2 -2.5 -142.2C34.9 -139.2 69.8 -131.9 97.3 -112.4Z" stroke="#12121a" fill="none" stroke-width="20"></path></g><g transform="translate(125 384)"><path d="M35.9 -43.2C47.1 -33.4 57.2 -22.6 60 -10.1C62.8 2.5 58.5 16.9 50.4 27.6C42.4 38.3 30.7 45.3 17.5 51.7C4.3 58.1 -10.5 63.8 -23.4 60.7C-36.4 57.6 -47.4 45.7 -56.2 31.8C-64.9 17.9 -71.4 2.1 -69 -12.4C-66.7 -26.8 -55.6 -40 -42.7 -49.5C-29.7 -58.9 -14.9 -64.8 -1.3 -63.3C12.3 -61.8 24.7 -52.9 35.9 -43.2Z" stroke="#12121a" fill="none" stroke-width="20"></path></g><g transform="translate(379 54)"><path d="M81.2 -104.8C97.6 -83 98.1 -50.2 99.5 -20.7C100.9 8.7 103.2 34.8 93.9 57.4C84.7 80.1 63.9 99.3 39.7 107.4C15.5 115.4 -12.1 112.3 -34.9 101.5C-57.7 90.8 -75.7 72.4 -94.5 49.8C-113.3 27.1 -132.9 0.1 -132.9 -27.5C-132.9 -55.1 -113.3 -83.4 -87.9 -103.6C-62.5 -123.8 -31.2 -136 0.6 -136.6C32.4 -137.3 64.8 -126.5 81.2 -104.8Z" stroke="#12121a" fill="none" stroke-width="20"></path></g></g></svg>