<svg id="wave" style="transform:rotate(0deg); transition: 0.3s" viewBox="0 0 1440 370" version="1.1" xmlns="http://www.w3.org/2000/svg"><defs><linearGradient id="sw-gradient-0" x1="0" x2="0" y1="1" y2="0"><stop stop-color="rgba(249, 34, 75, 1)" offset="0%"></stop><stop stop-color="rgba(249, 34, 75, 1)" offset="100%"></stop></linearGradient></defs><path style="transform:translate(0, 0px); opacity:1" fill="url(#sw-gradient-0)" d="M0,296L1440,111L2880,185L4320,148L5760,74L7200,185L8640,222L10080,74L11520,333L12960,222L14400,222L15840,296L17280,148L18720,185L20160,111L21600,74L23040,0L24480,74L25920,185L27360,37L28800,148L30240,185L31680,296L33120,37L34560,74L34560,370L33120,370L31680,370L30240,370L28800,370L27360,370L25920,370L24480,370L23040,370L21600,370L20160,370L18720,370L17280,370L15840,370L14400,370L12960,370L11520,370L10080,370L8640,370L7200,370L5760,370L4320,370L2880,370L1440,370L0,370Z"></path></svg>