<?xml version="1.0" standalone="no"?>
<svg xmlns:xlink="http://www.w3.org/1999/xlink" id="wave" style="transform:rotate(180deg); transition: 0.3s" viewBox="0 0 1440 490" version="1.1" xmlns="http://www.w3.org/2000/svg"><defs><linearGradient id="sw-gradient-0" x1="0" x2="0" y1="1" y2="0"><stop stop-color="rgba(249, 34, 75, 1)" offset="0%"/><stop stop-color="rgba(249, 34, 75, 1)" offset="100%"/></linearGradient></defs><path style="transform:translate(0, 0px); opacity:1" fill="url(#sw-gradient-0)" d="M0,98L1440,49L2880,196L4320,294L5760,49L7200,98L8640,392L10080,196L11520,196L12960,441L14400,196L15840,441L17280,98L18720,343L20160,196L21600,343L23040,441L24480,147L25920,294L27360,343L28800,98L30240,196L31680,147L33120,196L34560,147L34560,490L33120,490L31680,490L30240,490L28800,490L27360,490L25920,490L24480,490L23040,490L21600,490L20160,490L18720,490L17280,490L15840,490L14400,490L12960,490L11520,490L10080,490L8640,490L7200,490L5760,490L4320,490L2880,490L1440,490L0,490Z"/><defs><linearGradient id="sw-gradient-1" x1="0" x2="0" y1="1" y2="0"><stop stop-color="rgba(0, 0, 0, 1)" offset="0%"/><stop stop-color="rgba(0, 0, 0, 1)" offset="100%"/></linearGradient></defs><path style="transform:translate(0, 50px); opacity:0.9" fill="url(#sw-gradient-1)" d="M0,98L1440,392L2880,294L4320,98L5760,196L7200,147L8640,196L10080,147L11520,98L12960,98L14400,147L15840,196L17280,343L18720,49L20160,294L21600,49L23040,98L24480,0L25920,196L27360,49L28800,196L30240,245L31680,245L33120,294L34560,343L34560,490L33120,490L31680,490L30240,490L28800,490L27360,490L25920,490L24480,490L23040,490L21600,490L20160,490L18720,490L17280,490L15840,490L14400,490L12960,490L11520,490L10080,490L8640,490L7200,490L5760,490L4320,490L2880,490L1440,490L0,490Z"/></svg>